<svg height="512" viewBox="0 0 512 512" width="512" xmlns="http://www.w3.org/2000/svg"><g id="First_aid_kit" data-name="First aid kit"><path d="m464 152h-24v-16a8 8 0 0 0 -8-8h-24v-24a88.1 88.1 0 0 0 -88-88h-128a88.1 88.1 0 0 0 -88 88v24h-24a8 8 0 0 0 -8 8v16h-24a40.045 40.045 0 0 0 -40 40v256a40.045 40.045 0 0 0 40 40h416a40.045 40.045 0 0 0 40-40v-256a40.045 40.045 0 0 0 -40-40zm-40 0h-80v-8h80zm-240 0v-16a8 8 0 0 0 -8-8h-24v-24a40.045 40.045 0 0 1 40-40h128a40.045 40.045 0 0 1 40 40v24h-24a8 8 0 0 0 -8 8v16zm-64-48a72.081 72.081 0 0 1 72-72h128a72.081 72.081 0 0 1 72 72v24h-16v-24a56.063 56.063 0 0 0 -56-56h-128a56.063 56.063 0 0 0 -56 56v24h-16zm-32 40h80v8h-80zm400 304a24.027 24.027 0 0 1 -24 24h-416a24.027 24.027 0 0 1 -24-24v-256a24.027 24.027 0 0 1 24-24h416a24.027 24.027 0 0 1 24 24z"/><path d="m352 280h-56v-56a8 8 0 0 0 -8-8h-64a8 8 0 0 0 -8 8v56h-56a8 8 0 0 0 -8 8v64a8 8 0 0 0 8 8h56v56a8 8 0 0 0 8 8h64a8 8 0 0 0 8-8v-56h56a8 8 0 0 0 8-8v-64a8 8 0 0 0 -8-8zm-8 64h-56a8 8 0 0 0 -8 8v56h-48v-56a8 8 0 0 0 -8-8h-56v-48h56a8 8 0 0 0 8-8v-56h48v56a8 8 0 0 0 8 8h56z"/><path d="m112 184h-64a8 8 0 0 0 0 16h64a8 8 0 0 0 0-16z"/><path d="m144 184h-8a8 8 0 0 0 0 16h8a8 8 0 0 0 0-16z"/></g></svg>